<svg id="Icons" height='40' width='40' viewBox="0 0 60 60" xmlns="http://www.w3.org/2000/svg"><path d="m54 21c0-16-3-19-3-19h-42s-3 3-3 19z" fill="#775145"/><path d="m58 24v1l-.94 32.06a2 2 0 0 1 -2 1.94h-50.12a2 2 0 0 1 -2-1.94l-.94-32.06v-1z" fill="#f7b50f"/><path d="m53.96 30.04-.92 24a1 1 0 0 1 -1 .96h-44.08a1 1 0 0 1 -1-.96l-.92-24a1 1 0 0 1 1-1.04h45.92a1 1 0 0 1 1 1.04z" fill="#775145"/><g fill="#593e37"><path d="m6.032 7h47.936v2h-47.936z"/><path d="m5 13h50v2h-50z"/><path d="m53.81 34-.08 2h-47.46l-.08-2z"/><path d="m53.54 41-.08 2h-46.92l-.08-2z"/><path d="m53.27 48-.08 2h-46.38l-.08-2z"/></g><path d="m10.82 2c-1.48 1.75-3.82 6.36-3.82 18v1h-5v-1c0-13.01 2.93-17.23 4.3-18.5a1.914 1.914 0 0 1 1.31-.5h2.75a.6.6 0 0 1 .46 1z" fill="#f7b50f"/><path d="m49.18 2c1.48 1.75 3.82 6.36 3.82 18v1h5v-1c0-13.01-2.93-17.23-4.3-18.5a1.914 1.914 0 0 0 -1.31-.5h-2.75a.6.6 0 0 0 -.46 1z" fill="#f7b50f"/><path d="m23 25h14a0 0 0 0 1 0 0v11a2 2 0 0 1 -2 2h-10a2 2 0 0 1 -2-2v-11a0 0 0 0 1 0 0z" fill="#db9d12"/><circle cx="30" cy="31" fill="#b27e14" r="2"/><rect fill="#ffc610" height="5" rx="1" width="58" x="1" y="20"/></svg>