<svg version="1.2" xmlns="http://www.w3.org/2000/svg" viewBox="0 0 200 200" height="50" width="50">
	<path fill="#888888" d="m173.7 59.8c-0.2-0.5-0.6-1-1.2-1.3l-70-40.1c-0.5-0.2-1-0.4-1.6-0.3q-0.6 0-1.2 0.3l-70.3 40.1c-0.6 0.3-1 0.7-1.2 1.2q-0.3 0.6-0.3 1.2v82.5q0 0.5 0.2 0.9c0.2 0.6 0.6 1.2 1.3 1.6l70.3 39.7q0.6 0.3 1.2 0.4c0.6 0 1.1-0.1 1.6-0.4l70-39.9c0.6-0.3 1-0.8 1.2-1.5q0.2-0.4 0.2-0.9v-82.4q0-0.6-0.2-1.1z"/>
	<path fill="#be3aff" d="m99.1 15.3v28.6c-0.4 0-0.9 0.2-1.3 0.4l-45.5 25.9c-0.4 0.2-0.8 0.6-1.1 1.1-14.8-8.6-24.8-14.4-24.8-14.4 0.2-0.5 0.6-1 1.1-1.3l70.4-40q0.6-0.3 1.2-0.3z"/>
	<path fill="#a700ff" d="m147.3 72.6v53.3q0 0.6-0.2 1.1c-0.3 0.5-0.7 1-1.2 1.3l-45.3 25.8c-0.4 0.3-1 0.4-1.5 0.4q-0.7-0.1-1.3-0.4l-45.5-25.7c-0.5-0.3-0.9-0.8-1.2-1.4q-0.2-0.5-0.2-1v-53.4q0-0.7 0.3-1.3c0.3-0.5 0.7-0.9 1.1-1.1l45.5-25.9c0.4-0.2 0.9-0.4 1.3-0.4q0.8 0 1.5 0.4l45.3 25.9c0.5 0.3 0.9 0.7 1.1 1.2q0.3 0.6 0.3 1.2z"/>
	<path fill="#b73aff" d="m99.1 154.5v28.6q-0.6 0-1.2-0.3l-70.4-39.7c-0.6-0.4-1.1-1-1.3-1.6l24.9-14.5c0.3 0.6 0.7 1.1 1.2 1.4l45.5 25.7q0.6 0.3 1.3 0.4z"/>
	<path fill="#a83aff" d="m50.9 126q0 0.5 0.2 1l-24.9 14.5q-0.1-0.5-0.1-0.9v-82.5q0-0.6 0.3-1.2c0 0 10 5.8 24.8 14.4q-0.3 0.6-0.3 1.3z"/>
	<path fill="#dd3aff" d="m171.9 141.4c-0.2 0.6-0.6 1.2-1.2 1.5l-70 39.9c-0.5 0.2-1.1 0.4-1.6 0.3v-28.6c0.5 0 1.1-0.1 1.5-0.4l45.3-25.8c0.5-0.3 0.9-0.8 1.2-1.3 13.7 8 23.4 13.6 24.8 14.4z"/>
	<path fill="#e138ff" d="m171.9 57l-24.9 14.4c-0.2-0.5-0.6-0.9-1.1-1.2l-45.3-25.9q-0.7-0.4-1.5-0.4v-28.6c0.5-0.1 1.1 0 1.6 0.3l70 40c0.5 0.4 1 0.8 1.2 1.4z"/>
	<path fill="#ff3af9" d="m172.1 58.1v82.3q0 0.6-0.2 1c-1.4-0.8-11.1-6.4-24.8-14.4q0.2-0.5 0.2-1.1v-53.3q0-0.6-0.3-1.2l24.9-14.4q0.2 0.5 0.2 1.1z"/>
	<path fill="#ff3af9" d="m103 127.9c-2.4 0-4.8 0-7.2-0.1-1.1 0-2 0.4-2.8 1.2-3 3.1-6.1 6-9 9.1-1 1-1.7 1-2.7-0.1-1.1-1.3-2.3-2.5-3.6-3.6-1.2-1-1.2-1.8-0.2-2.7q1-1 1.9-2c0.7-0.8 0.5-1.3-0.5-1.3q-6.9 0-13.8 0c-0.2 0-0.4-0.2-0.4-0.5v-8.5c0-0.2 0.2-0.3 0.4-0.3q0.5 0 1.3 0 13.5 0.1 27 0c1.3 0 2.5 0.3 3.6 1.1 4.2 3 9 5.1 13.9 7 0.4 0.1 0.9 0.2 1.2 0.7-3.1 0-6.1 0-9.1 0z"/>
	<path fill="#ff3af9" d="m161.8 127.4c-0.2 0.6-0.9 0.4-1.4 0.4q-11 0.1-21.9 0.1-10.3-0.1-20.6 0c-1.5 0-2.9-0.4-4.3-0.9q-9.5-3.3-17.8-9c-7.5-5.2-12.6-12.1-15.1-20.9-0.7-2.2-1.2-4.5-1.7-6.7-0.2-0.9-0.6-1.6-1.5-2-0.8-0.4-1.6-0.9-2.3-1.4-0.9-0.8-1.2-1.9-0.3-2.7 3.2-2.5 4.4-6.3 6.5-9.4 4.1-6.1 9.9-8.9 17.3-8 2.9 0.4 5.3 1.9 7.4 4q16.8 17 33.6 33.9 2.5 2.4 4.9 4.9c0.3 0.3 0.8 0.6 0.7 1.1-0.2 0.6-0.9 0.6-1.3 0.6q-1 0.1-2 0.1-9.9 0-19.8 0c-6.2 0-11.5-2.2-16.1-6.3-1.1-1-2-2-3-3-0.6-0.7-0.6-1.2 0.1-1.8 1.4-1.4 2.9-2.7 4.4-3.9 1-0.7 1.7-0.1 2.4 0.5q2.5 2.5 5.7 4.2c2.7 1.4 5.6 1.5 8.5 1.3 0.9 0 1.1-0.5 0.6-1.2q-0.8-0.9-1.6-1.8c-6.5-6.4-13-12.8-19.5-19.1-1.5-1.5-3-2.9-4.9-3.8-5.5-2.3-10.7 1.1-10.9 7.3-0.2 4.6 0.9 9 2.6 13.2 4.5 11.2 13 17.8 24.4 21 2.2 0.6 4.4 0.8 6.7 0.8 10-0.1 20.1 0 30.1-0.1 1.4 0 2.4 0.4 3.4 1.5 1.9 2.1 4 4 5.9 6 0.3 0.3 0.9 0.6 0.8 1.1z"/>
	<path fill="#ff3af9" d="m100.5 85.3c0 2.6-1.9 4.6-4.5 4.6-2.5 0-4.5-2-4.5-4.6 0-2.5 2-4.5 4.6-4.5 2.4-0.1 4.4 2 4.4 4.5z"/>
</svg>