<svg width="25" height="24" viewBox="0 0 25 24" fill="none" xmlns="http://www.w3.org/2000/svg">
<path d="M4.75 19V10C4.75 9.68333 4.82083 9.38333 4.9625 9.1C5.10417 8.81667 5.3 8.58333 5.55 8.4L11.55 3.9C11.9 3.63333 12.3 3.5 12.75 3.5C13.2 3.5 13.6 3.63333 13.95 3.9L19.95 8.4C20.2 8.58333 20.3958 8.81667 20.5375 9.1C20.6792 9.38333 20.75 9.68333 20.75 10V19C20.75 19.55 20.5542 20.0208 20.1625 20.4125C19.7708 20.8042 19.3 21 18.75 21H15.75C15.4667 21 15.2292 20.9042 15.0375 20.7125C14.8458 20.5208 14.75 20.2833 14.75 20V15C14.75 14.7167 14.6542 14.4792 14.4625 14.2875C14.2708 14.0958 14.0333 14 13.75 14H11.75C11.4667 14 11.2292 14.0958 11.0375 14.2875C10.8458 14.4792 10.75 14.7167 10.75 15V20C10.75 20.2833 10.6542 20.5208 10.4625 20.7125C10.2708 20.9042 10.0333 21 9.75 21H6.75C6.2 21 5.72917 20.8042 5.3375 20.4125C4.94583 20.0208 4.75 19.55 4.75 19Z" fill="currentColor"/>
</svg>
