<svg width="14" height="14" viewBox="0 0 14 14" fill="none" xmlns="http://www.w3.org/2000/svg">
<path d="M2.03125 7C2.03125 4.26067 4.26067 2.03125 7 2.03125C9.73933 2.03125 11.9688 4.26067 11.9688 7C11.9688 9.73933 9.73933 11.9688 7 11.9688C4.26067 11.9688 2.03125 9.73933 2.03125 7ZM7.67276 3.47752C7.47362 3.34446 7.2395 3.27344 7 3.27344C6.67884 3.27344 6.37083 3.40102 6.14374 3.62811C5.91664 3.85521 5.78906 4.16321 5.78906 4.48438C5.78906 4.72388 5.86008 4.958 5.99314 5.15714C6.02824 5.20967 6.06724 5.25914 6.10971 5.3052C5.90709 5.33238 5.71763 5.4253 5.57146 5.57146C5.39565 5.74728 5.29688 5.98573 5.29688 6.23438C5.29688 6.48302 5.39565 6.72147 5.57146 6.89729C5.73249 7.05831 5.94606 7.15471 6.17188 7.16979V8.57812H5.90625C5.65761 8.57812 5.41915 8.6769 5.24334 8.85271C5.06752 9.02853 4.96875 9.26698 4.96875 9.51562C4.96875 9.76427 5.06752 10.0027 5.24334 10.1785C5.41915 10.3544 5.65761 10.4531 5.90625 10.4531H8.3125C8.56114 10.4531 8.7996 10.3544 8.97541 10.1785C9.15123 10.0027 9.25 9.76427 9.25 9.51562C9.25 9.26699 9.15123 9.02853 8.97541 8.85271C8.7996 8.6769 8.56114 8.57812 8.3125 8.57812H8.04688V6.23438C8.04688 5.98574 7.9481 5.74728 7.77229 5.57146C7.74229 5.54147 7.71048 5.51372 7.6771 5.48832C7.74111 5.44515 7.80114 5.39575 7.85626 5.34064C8.02561 5.17129 8.14095 4.95552 8.18767 4.72062C8.23439 4.48572 8.21041 4.24224 8.11876 4.02097C8.02711 3.7997 7.8719 3.61058 7.67276 3.47752Z" fill="#D4D6DD" stroke="#D4D6DD"/>
</svg>
