<svg version="1.2" xmlns="http://www.w3.org/2000/svg" viewBox="0 0 128 128" height="50" width="50">
	<path fill-rule="evenodd" fill="#ffe159" d="m91.7 63.3c0 3.7-0.7 7.2-2 10.4q-1.2 3-3 5.6c-5 7.3-13.4 12-22.9 12-5.5 0-10.6-1.5-14.9-4.3l0.6-0.6c4.1 2.6 9 4.1 14.3 4.1 9 0 17-4.4 21.9-11.2q1.9-2.6 3.2-5.6c1.3-3.2 2-6.7 2-10.4 0-5-1.4-9.8-3.8-13.9l0.6-0.6c2.6 4.3 4 9.2 4 14.5zm-16.2 0.3c-0.9 0-1.8 0-2.7-0.1l1.9-1.9q0.1 0 0.1 0.1 0.5 0.5 1 1.1c0.4 0.4 0.2 0.7-0.3 0.8z"/>
	<path fill="#888888" d="m101.5 29v18.5l-1-0.9v-18.6q0-0.7-0.3-1.2c0.7 0.4 1.3 1.2 1.3 2.2z"/>
	<path fill="#ffe159" d="m100.5 28v8.2l-12.2 12c-5-8.6-14.3-14.4-25-14.4-15.9 0-28.9 12.9-28.9 28.9 0 5.3 1.5 10.3 4 14.6q0.7 1.2 1.5 2.4c2.3 3.1 5.2 5.8 8.5 7.8l-13.9 13.7h-5q-0.6 0-1.2-0.3-0.3-0.6-0.3-1.3v-18.5l-1-1-13.2-13.2-1-1c-1-1-1-2.6 0-3.5l14.2-14.3v-20.1c0-1.4 1.1-2.5 2.5-2.5h20.2l13.1-13.1c1-1 2.5-1 3.5 0l0.8 0.8 0.1 0.1 12.2 12.2 1 1h18.6q0.6 0 1.2 0.3 0.3 0.5 0.3 1.2z"/>
	<path fill="#ffe159" d="m28.3 100.9c-0.8-0.5-1.3-1.3-1.3-2.2v-18.6l1 1v18.5q0 0.7 0.3 1.3z"/>
	<path fill-rule="evenodd" fill="#ffe159" d="m91.7 63.3c0 3.7-0.7 7.2-2 10.4q-1.2 3-3 5.6c-5 7.3-13.4 12-22.9 12-5.5 0-10.6-1.5-14.9-4.3l0.6-0.6c4.1 2.6 9 4.1 14.3 4.1 9 0 17-4.4 21.9-11.2q1.9-2.6 3.2-5.6c1.3-3.2 2-6.7 2-10.4 0-5-1.4-9.8-3.8-13.9l0.6-0.6c2.6 4.3 4 9.2 4 14.5zm-16.2 0.3c-0.9 0-1.8 0-2.7-0.1l1.9-1.9q0.1 0 0.1 0.1 0.5 0.5 1 1.1c0.4 0.4 0.2 0.7-0.3 0.8z"/>
	<path fill-rule="evenodd" fill="#ffe159" d="m91.7 63.3c0 3.7-0.7 7.2-2 10.4q-1.2 3-3 5.6c-5 7.3-13.4 12-22.9 12-5.5 0-10.6-1.5-14.9-4.3l0.6-0.6c4.1 2.6 9 4.1 14.3 4.1 9 0 17-4.4 21.9-11.2q1.9-2.6 3.2-5.6c1.3-3.2 2-6.7 2-10.4 0-5-1.4-9.8-3.8-13.9l0.6-0.6c2.6 4.3 4 9.2 4 14.5z"/>
	<path fill-rule="evenodd" fill="#ffe159" d="m91.7 63.3c0 3.7-0.7 7.2-2 10.4q-1.2 3-3 5.6c-5 7.3-13.4 12-22.9 12-5.5 0-10.6-1.5-14.9-4.3l0.6-0.6c4.1 2.6 9 4.1 14.3 4.1 9 0 17-4.4 21.9-11.2q1.9-2.6 3.2-5.6c1.3-3.2 2-6.7 2-10.4 0-5-1.4-9.8-3.8-13.9l0.6-0.6c2.6 4.3 4 9.2 4 14.5zm-16.2 0.3c-0.9 0-1.8 0-2.7-0.1l1.9-1.9q0.1 0 0.1 0.1 0.5 0.5 1 1.1c0.4 0.4 0.2 0.7-0.3 0.8z"/>
	<path fill-rule="evenodd" fill="#c36f25" d="m92.3 62.7c0 3.9-0.8 7.6-2.2 11q-1.3 3-3.1 5.6c-5.2 7.5-13.9 12.3-23.7 12.3-5.4 0-10.5-1.5-14.9-4.1-3.3-2-6.2-4.7-8.5-7.8q-0.8-1.2-1.5-2.4c-2.5-4.3-4-9.3-4-14.6 0-16 13-28.9 28.9-28.9 10.7 0 20 5.8 25 14.4 2.5 4.2 4 9.2 4 14.5zm-0.6 0.6c0-5.3-1.4-10.2-4-14.5-4.9-8-13.8-13.4-23.9-13.4-15.5 0-28 12.5-28 27.9 0 4.2 0.9 8.2 2.6 11.8q1.1 2.4 2.6 4.6c2.1 2.9 4.8 5.4 7.9 7.3 4.3 2.8 9.4 4.3 14.9 4.3 9.5 0 17.9-4.7 22.9-12q1.8-2.6 3-5.6c1.3-3.2 2-6.7 2-10.4z"/>
	<path fill-rule="evenodd" fill="#ffe159" d="m91.7 63.3c0 3.7-0.7 7.2-2 10.4q-1.2 3-3 5.6c-5 7.3-13.4 12-22.9 12-5.5 0-10.6-1.5-14.9-4.3l0.6-0.6c4.1 2.6 9 4.1 14.3 4.1 9 0 17-4.4 21.9-11.2q1.9-2.6 3.2-5.6c1.3-3.2 2-6.7 2-10.4 0-5-1.4-9.8-3.8-13.9l0.6-0.6c2.6 4.3 4 9.2 4 14.5z"/>
	<path fill="#cc861f" d="m75.8 62.8q-0.5-0.6-1-1.1 0-0.1-0.1-0.1l-1.9 1.9c0.9 0.1 1.8 0.1 2.7 0.1 0.5-0.1 0.7-0.4 0.3-0.8z"/>
	<path fill="#efae44" d="m49.8 86.1l-0.3 0.3c-2.9-1.7-5.4-4-7.5-6.7q2.6 0 5.2 0c0.6 0 0.8 0.3 0.4 0.7q-0.6 0.7-1.3 1.3c-0.6 0.6-0.6 1.1 0.2 1.7 0.8 0.7 1.5 1.4 2.2 2.2 0.4 0.5 0.7 0.6 1.1 0.5z"/>
	<path fill="#efae44" d="m87.1 49.4l-8.8 8.7q-7.1-7.1-14.2-14.2c-1.2-1.3-2.7-2.3-4.6-2.5-4.5-0.6-8.2 1.1-10.7 4.9-1.3 2-2.1 4.3-4 5.9-0.6 0.5-0.5 1.2 0.1 1.7q0.7 0.5 1.4 0.8c0.6 0.3 0.9 0.7 1 1.3q0.4 2.1 1 4.1c1.6 5.5 4.8 9.9 9.5 13.1q1.5 1.1 3.1 2l-0.6 0.5q-0.9-0.5-1.8-1.2c-0.7-0.4-1.4-0.6-2.2-0.6q-8.4 0-16.9 0-0.4 0-0.7 0c-1.3-3.3-2.1-6.8-2.1-10.6 0-15 12.2-27.1 27.2-27.1 9.9 0 18.5 5.3 23.3 13.2z"/>
	<path fill="#ffe159" d="m60.3 75.7l-10.5 10.4c-0.4 0.1-0.7 0-1.1-0.5-0.7-0.8-1.4-1.5-2.2-2.2-0.8-0.6-0.8-1.1-0.2-1.7q0.7-0.6 1.3-1.3c0.4-0.4 0.2-0.7-0.4-0.7q-2.6 0-5.2 0-2-2.7-3.3-5.8 0.3 0 0.7 0 8.5 0 16.9 0c0.8 0 1.5 0.2 2.2 0.6q0.9 0.7 1.8 1.2z"/>
	<path fill="#efae44" d="m87.7 48.8l-0.6 0.6c-4.8-7.9-13.4-13.2-23.3-13.2-15 0-27.2 12.1-27.2 27.1 0 3.8 0.8 7.3 2.1 10.6q1.3 3.1 3.3 5.8c2.1 2.7 4.6 5 7.5 6.7l-0.6 0.6c-3.1-1.9-5.8-4.4-7.9-7.3q-1.5-2.2-2.6-4.6c-1.7-3.6-2.6-7.6-2.6-11.8 0-15.4 12.5-27.9 28-27.9 10.1 0 19 5.4 23.9 13.4z"/>
	<path fill="#ffe159" d="m52.8 51.9c-0.1 2.9 0.6 5.6 1.7 8.3q0.1 0.3 0.3 0.7 0.1 0.3 0.3 0.7 0.2 0.3 0.3 0.7 0.6 1 1.2 1.9 0.2 0.3 0.4 0.6 0.2 0.3 0.4 0.6 0.5 0.6 0.9 1.1 0 0 0.1 0 0.4 0.5 0.9 1 0.5 0.5 1.1 1 0.5 0.5 1.1 0.9 1.5 1.1 3.3 2l-1.5 1.4-2.4 2.4q-1.6-0.9-3.1-2c-4.7-3.2-7.9-7.6-9.5-13.1q-0.6-2-1-4.1c-0.1-0.6-0.4-1-1-1.3q-0.7-0.3-1.4-0.8c-0.6-0.5-0.7-1.2-0.1-1.7 1.9-1.6 2.7-3.9 4-5.9 2.5-3.8 6.2-5.5 10.7-4.9 1.9 0.2 3.4 1.2 4.6 2.5q7.1 7.1 14.2 14.2l-3.6 3.5q-6-6-12.1-11.9c-0.9-0.9-1.8-1.8-3-2.3-3.4-1.5-6.6 0.7-6.8 4.5z"/>
	<path fill="#ffe159" d="m89.7 73.7q-1.2 3-3 5.6h-1q1.9-2.6 3.2-5.6z"/>
	<path fill="#ffe159" d="m60.7 52.8c0 1.6-1.2 2.9-2.8 2.9-1.6 0-2.8-1.3-2.8-2.9 0-1.5 1.2-2.8 2.8-2.8 1.6 0 2.8 1.2 2.8 2.8z"/>
	<path fill="#e0ab33" d="m88.9 73.7q-1.3 3-3.2 5.6h-1.4q-6.4 0-12.8 0c-0.9 0-1.8-0.2-2.7-0.5q-4.1-1.4-7.9-3.6l2.4-2.4 1.5-1.4q2.3 1.1 4.9 1.8c1.3 0.4 2.7 0.5 4.1 0.5q7.5 0 15.1 0z"/>
	<path fill="#e0ab33" d="m88.6 68.7c-0.1 0.4-0.5 0.4-0.8 0.4q-0.7 0.1-1.3 0-6.1 0.1-12.3 0-3.2 0-5.9-1.2l2.8-2.8 1.7-1.6c0.9 0.1 1.8 0.1 2.7 0.1 0.5-0.1 0.7-0.4 0.3-0.8q-0.5-0.6-1-1.1 0-0.1-0.1-0.1l3.6-3.5q3.4 3.4 6.8 6.9 1.5 1.5 3.1 3c0.2 0.2 0.5 0.4 0.4 0.7z"/>
	<path fill="#d28427" d="m75.5 63.6c-0.9 0-1.8 0-2.7-0.1l1.9-1.9q0.1 0 0.1 0.1 0.5 0.5 1 1.1c0.4 0.4 0.2 0.7-0.3 0.8z"/>
	<path fill="#d28427" d="m85.7 79.3c-4.9 6.8-12.9 11.2-21.9 11.2-5.3 0-10.2-1.5-14.3-4.1l0.3-0.3q0.3-0.1 0.6-0.4c1.8-1.9 3.7-3.7 5.6-5.6 0.5-0.6 1-0.8 1.8-0.8 1.5 0 2.9 0 4.4 0h5.7c-0.2-0.3-0.5-0.3-0.8-0.4-2.3-0.9-4.6-1.9-6.8-3.2l0.6-0.5q3.8 2.2 7.9 3.6c0.9 0.3 1.8 0.5 2.7 0.5q6.4 0 12.8 0z"/>
	<path fill="#e0ab33" d="m67.9 79.3h-5.7c-1.5 0-2.9 0-4.4 0-0.8 0-1.3 0.2-1.8 0.8-1.9 1.9-3.8 3.7-5.6 5.6q-0.3 0.3-0.6 0.4l10.5-10.4c2.2 1.3 4.5 2.3 6.8 3.2 0.3 0.1 0.6 0.1 0.8 0.4z"/>
	<path fill="#d28427" d="m90.9 63.3c0 3.7-0.7 7.2-2 10.4q-7.6 0-15.1 0c-1.4 0-2.8-0.1-4.1-0.5q-2.6-0.7-4.9-1.8l3.5-3.5q2.7 1.2 5.9 1.2 6.2 0.1 12.3 0 0.6 0.1 1.3 0c0.3 0 0.7 0 0.8-0.4 0.1-0.3-0.2-0.5-0.4-0.7q-1.6-1.5-3.1-3-3.4-3.5-6.8-6.9l8.8-8.7c2.4 4.1 3.8 8.9 3.8 13.9z"/>
	<path fill="#eaac43" d="m114.7 64.3l-14.2 14.3v20.1c0 1.4-1.1 2.5-2.5 2.5h-20.1l-13.1 13.1c-1 1-2.6 1-3.6 0l-12.2-12.2-0.9-0.9h-13.6l13.9-13.7c4.4 2.6 9.5 4.1 14.9 4.1 9.8 0 18.5-4.8 23.7-12.3q1.8-2.6 3.1-5.6c1.4-3.4 2.2-7.1 2.2-11 0-5.3-1.5-10.3-4-14.5l12.2-12v10.4l1 0.9 13.2 13.3c1 1 1 2.6 0 3.5z"/>
	<path fill="#d28427" d="m91.7 63.3c0 3.7-0.7 7.2-2 10.4q-1.2 3-3 5.6c-5 7.3-13.4 12-22.9 12-5.5 0-10.6-1.5-14.9-4.3l0.6-0.6c4.1 2.6 9 4.1 14.3 4.1 9 0 17-4.4 21.9-11.2q1.9-2.6 3.2-5.6c1.3-3.2 2-6.7 2-10.4 0-5-1.4-9.8-3.8-13.9l0.6-0.6c2.6 4.3 4 9.2 4 14.5z"/>
	<path fill="#888888" d="m115.7 65.3l-14.2 14.2v20.1c0 1.4-1.2 2.5-2.5 2.5h-20.2l-13.1 13.2c-1 0.9-2.6 0.9-3.5 0l-13.2-13.2 12.2 12.2c1 1 2.6 1 3.6 0l13.1-13.1h20.1c1.4 0 2.5-1.1 2.5-2.5v-20.1l14.2-14.3c1-0.9 1-2.5 0-3.5l1 1c1 0.9 1 2.5 0 3.5z"/>
	<path fill="#888888" d="m49 102.1h-18.5c-1 0-1.8-0.5-2.2-1.2q0.6 0.3 1.2 0.3h18.6z"/>
	<path fill-rule="evenodd" fill="#efae44" d="m74.7 61.6l-1.9 1.9c-0.9-0.1-1.8-0.3-2.6-0.8q-0.4-0.2-0.8-0.4 0 0-0.1-0.1-0.1 0-0.2-0.1-0.2-0.1-0.5-0.3 0 0 0 0-0.2-0.2-0.4-0.3-0.1 0-0.1-0.1-0.4-0.2-0.7-0.5-0.4-0.4-0.8-0.8c-0.4-0.4-0.9-0.8-1.5-0.3q-1.5 1.1-2.8 2.4c-0.3 0.4-0.4 0.7 0 1.1 0.6 0.6 1.2 1.3 1.9 1.9q0.1 0.1 0.2 0.2 1.8 1.6 3.9 2.5l-3.5 3.5q-1.8-0.9-3.3-2-0.6-0.5-1.1-0.9-0.6-0.5-1.1-1-0.5-0.5-0.9-1-0.1 0-0.1 0-0.4-0.5-0.9-1.1-0.2-0.3-0.4-0.6-0.2-0.3-0.4-0.6-0.6-0.9-1.2-1.9-0.1-0.4-0.3-0.7-0.2-0.4-0.3-0.7-0.2-0.4-0.3-0.7c-1.1-2.7-1.8-5.4-1.7-8.3 0.2-3.8 3.4-6 6.8-4.5 1.2 0.5 2.1 1.4 3 2.3q6.1 5.9 12.1 11.9zm-14-8.8c0-1.6-1.2-2.8-2.8-2.8-1.6 0-2.8 1.3-2.8 2.8 0 1.6 1.2 2.9 2.8 2.9 1.6 0 2.8-1.3 2.8-2.9z"/>
	<path fill="#ffe159" d="m72.8 63.5l-1.7 1.6-2.8 2.8q-2.1-0.9-3.9-2.5-0.1-0.1-0.2-0.2c-0.7-0.6-1.3-1.3-1.9-1.9-0.4-0.4-0.3-0.7 0-1.1q1.3-1.3 2.8-2.4c0.6-0.5 1.1-0.1 1.5 0.3q0.4 0.4 0.8 0.8 0.3 0.3 0.7 0.5 0 0.1 0.1 0.1 0.2 0.1 0.4 0.3 0 0 0 0 0.3 0.2 0.5 0.3 0.1 0.1 0.2 0.1v0.1q0.1 0 0.1 0 0.4 0.2 0.8 0.4c0.8 0.5 1.7 0.7 2.6 0.8z"/>
</svg>