<svg version="1.2" xmlns="http://www.w3.org/2000/svg" viewBox="0 0 400 400" height="50" width="50">
	<path fill-rule="evenodd" fill="#2b9ed5" d="m352.4 193q0 1.8-0.1 3.5 0 1.7-0.1 3.3 0 0.1 0 0.2-0.1 1.7-0.2 3.4-0.1 1.6-0.2 3.3-0.2 1.7-0.3 3.3 0 0.1 0 0.1-0.2 1.6-0.4 3.2 0 0.1 0 0.1-0.2 1.3-0.4 2.7-0.1 0.6-0.2 1.2-0.2 1.4-0.4 2.7-0.3 1.6-0.6 3.2-0.2 1.1-0.4 2.2-0.2 0.8-0.4 1.7-0.6 2.9-1.4 5.7-0.1 0.6-0.2 1.1-0.3 1.2-0.6 2.3-0.5 1.6-1 3.1-0.4 1.6-1 3.1-0.3 1.2-0.7 2.3-0.2 0.6-0.4 1.3-0.4 0.9-0.7 1.9-0.3 0.6-0.5 1.3-0.5 1.2-1 2.4-0.4 1.2-0.9 2.4-0.2 0.5-0.5 1-0.5 1.4-1.2 2.8-0.4 1-0.9 2-0.1 0.3-0.2 0.5-0.3 0.6-0.5 1.2-1.1 2.1-2.1 4.2-0.4 0.8-0.9 1.6-1 1.9-2.1 3.8-0.3 0.6-0.6 1.2-0.2 0.3-0.3 0.5-0.6 1-1.1 1.9-0.1 0.1-0.2 0.3-0.7 1.1-1.4 2.3-1.5 2.4-3.1 4.8-0.6 0.8-1.1 1.6-1.8 2.5-3.6 4.9-0.7 0.9-1.4 1.8-0.9 1.3-1.9 2.5-0.4 0.5-0.8 1-1.5 1.8-3 3.5-0.6 0.7-1.1 1.3-0.2 0.2-0.4 0.4-0.6 0.7-1.2 1.4-1.8 1.9-3.7 3.8-0.6 0.7-1.3 1.4-1.2 1.2-2.5 2.5-0.8 0.7-1.6 1.5-0.9 0.8-1.9 1.7-1.2 1-2.4 2.1-0.4 0.4-0.9 0.8-0.8 0.6-1.6 1.3-0.3 0.3-0.6 0.5-0.9 0.8-1.8 1.5-3.7 2.9-7.5 5.6-0.6 0.4-1.2 0.8-1.9 1.4-3.9 2.7-0.4 0.3-0.9 0.5-0.9 0.7-1.9 1.2-0.6 0.4-1.3 0.8 0 0.1 0 0.1-1.1 0.6-2.2 1.2-2.2 1.4-4.5 2.6-0.9 0.5-1.7 0.9-5.1 2.7-10.4 5-0.8 0.4-1.5 0.7-3.7 1.6-7.6 3-0.6 0.2-1.3 0.4-1.2 0.5-2.3 0.9-0.1 0-0.1 0-1.6 0.5-3.1 1 0 0-0.1 0-1.5 0.5-3.1 1-1.5 0.4-3 0.8-0.1 0-0.1 0-0.9 0.3-1.8 0.5-0.7 0.2-1.4 0.4-0.9 0.2-1.8 0.4-0.8 0.2-1.7 0.4-1.4 0.3-2.8 0.6-5 1-10 1.7-0.7 0.1-1.4 0.2-1.1 0.1-2.1 0.3-2.7 0.3-5.5 0.5-1 0.1-2 0.2-3.1 0.2-6.2 0.3-0.9 0-1.9 0-0.3 0-0.5 0-1.3 0-2.5 0c-39.4 0-75.5-14.3-103.3-37.9-34.3-29.2-56-72.8-56-121.4 0-87.9 71.3-159.3 159.3-159.3 48.7 0 92.3 21.9 121.5 56.3q1.4 1.7 2.7 3.3 0.6 0.7 1.1 1.4 0.5 0.6 1 1.3 2.7 3.5 5.2 7.2 0.7 0.9 1.3 1.9 0.8 1.1 1.5 2.3 0 0 0 0 1.1 1.7 2.2 3.5 1 1.8 2.1 3.6 0.6 1.1 1.2 2.2 0.1 0.2 0.2 0.4 0.6 1 1.1 2 2 3.9 3.9 8 0.5 1.1 1 2.2 0.5 1 0.9 2.1 0.3 0.6 0.5 1.2 0.9 2.2 1.7 4.4 0.7 1.8 1.3 3.5 0.3 0.9 0.6 1.8 0.5 1.3 0.9 2.7 0.4 1.3 0.8 2.7 0.4 1.3 0.8 2.7 0 0 0 0.1 0.4 1.3 0.7 2.5 0 0.1 0 0.2 0.3 1.2 0.6 2.4 0.1 0.1 0.1 0.2 0.3 1.3 0.6 2.7 0.1 0.3 0.1 0.6 0.3 1.1 0.5 2.3 0.3 1.4 0.6 2.8 0 0 0 0.1 0.2 1.2 0.4 2.5 0.5 2.9 0.9 5.9 0.1 1.4 0.3 2.8 0.2 1.8 0.4 3.7 0 0.8 0.1 1.6 0.2 3.2 0.4 6.3 0 1.5 0 3 0.1 1.5 0.1 2.9zm-9.6-1.4c0-58.5-33.6-109.1-82.5-133.8q-0.5-0.3-1.1-0.5c-19.9-9.9-42.4-15.4-66.1-15.4-82.7 0-149.7 67-149.7 149.7 0 18.7 3.4 36.6 9.7 53.2q1.4 3.6 3 7.2c23.1 52.6 75.8 89.3 137 89.3 82.6 0 149.7-67 149.7-149.7z"/>
	<path fill="#55c8ff" d="m260.3 57.8c-17.8-6.9-37.4-10.6-57.8-10.6-86.4 0-156.4 67.8-156.4 151.4 0 18.8 3.5 36.8 10 53.4q-1.6-3.6-3-7.2c-6.3-16.6-9.7-34.5-9.7-53.2 0-82.7 67-149.7 149.7-149.7 23.7 0 46.2 5.5 66.1 15.4q0.6 0.2 1.1 0.5z"/>
	<path fill-rule="evenodd" fill="#009fe8" d="m162.8 149v-0.2q-0.1-2 0-4c0.5-13.9 12.2-21.6 24.6-16.3 4.3 1.9 7.7 5.2 11 8.4 14.7 14.4 29.4 28.9 44.1 43.3 1.2 1.3 2.4 2.7 3.5 4.1 1.2 1.5 0.7 2.6-1 2.7q-0.1 0-0.2 0c-6.6 0.2-13.1 0.2-19.2-3-4.8-2.5-9.1-5.6-13-9.5-1.4-1.5-3.1-2.7-5.2-1.1-3.6 2.7-7 5.5-10.2 8.7-1.3 1.3-1.4 2.7 0 4.1 2.2 2.2 4.3 4.6 6.7 6.7 10.3 9.2 22.3 14.3 36.2 14.4 14.9 0 29.9 0 44.8 0 1.5 0 2.9-0.1 4.4-0.2 0.4-0.1 0.9-0.1 1.3-0.2 0.7-0.1 1.4-0.4 1.7-1.2 0.3-1.2-0.8-1.9-1.5-2.6-3.7-3.7-7.4-7.3-11-11q-38-38.2-76-76.4c-4.7-4.7-10-8.3-16.7-9.1-16.6-2-29.8 4.3-38.9 17.9-4.8 7.2-7.5 15.7-14.6 21.4-1.7 1.3-1.7 3.1-0.6 4.6-1.4 1.7-0.7 3.9 1.3 5.4 1.5 1.2 3.3 2.3 5.1 3.2 2 0.9 2.9 2.4 3.4 4.5 1.1 5.1 2.3 10.1 3.7 15.1 5.5 19.3 16.6 34.6 32.7 46.2q-1.8-0.5-3.9-0.5c-20.3 0.1-40.6 0-60.9 0-1.4 0-2.4 0-3.1 0-0.5-0.1-0.9 0.3-0.9 0.7v19.2c0 0.6 0.5 1 1.1 1 10.3 0 20.7 0 31.1 0 2.2 0.1 2.6 1.3 1.1 2.9q-0.5 0.6-1.1 1.2-1.6 1.7-3.4 3.3c-1.7 1.6-2 3.2-0.7 4.8q0.5 0.7 1.3 1.3c3 2.5 5.6 5.3 8.1 8.2 2.2 2.5 3.9 2.5 6 0.2 6.8-6.9 13.7-13.6 20.3-20.4 1.9-1.9 3.9-2.8 6.5-2.7 5.4 0.1 10.8 0 16.2 0h17.9q2.9 1.2 5.9 2.2c3.3 1.1 6.5 1.9 9.9 1.9 15.4-0.1 30.9-0.1 46.3-0.1h15.5c-19 34.6-55.8 58-98 58-31.1 0-59.3-12.7-79.6-33.3-19.9-20.2-32.3-47.9-32.3-78.6 0-61.8 50.1-111.9 111.9-111.9 27.8 0 53.1 10.1 72.7 26.9 24 20.5 39.2 51 39.2 85 0 10.2-1.4 20.2-4 29.6-21.1 0.1-42.3 0-63.4 0-5.1 0-10.2-0.4-15.1-1.8-25.7-7.2-44.9-22.1-55-47.3-3.4-8.3-5.7-16.8-6-25.7zm28.5-0.8c0.1-5.8-4.5-10.4-10.1-10.4-5.7 0.1-10.2 4.7-10.2 10.4q0 1 0.2 2c0.9 4.8 5 8.3 10 8.3 5 0 9.1-3.5 10-8.3q0.1-1 0.1-2z"/>
	<path fill-rule="evenodd" fill="#1cb0f6" d="m342.8 191.6c-0.1 82.7-67.1 149.7-149.7 149.7-61.2 0-113.9-36.7-137-89.3-6.5-16.6-10-34.6-10-53.4 0-83.6 70-151.4 156.4-151.4 20.4 0 40 3.7 57.8 10.6 48.9 24.7 82.4 75.3 82.4 133.8zm-40.4 32.2c2.6-9.4 4-19.4 4-29.6 0-34-15.2-64.5-39.2-85-19.6-16.8-44.9-26.9-72.7-26.9-61.8 0-111.9 50.1-111.9 111.9 0 30.7 12.4 58.4 32.3 78.6 20.3 20.6 48.5 33.3 79.6 33.3 42.2 0 79-23.4 98-58q1.1-1.9 2.1-4 4-7.8 6.6-16.3 0.7-2 1.2-4z"/>
	<path fill-rule="evenodd" fill="#1cb0f6" d="m162.8 149v-0.2q-0.1-2 0-4c0.5-13.9 12.2-21.6 24.6-16.3 4.3 1.9 7.7 5.2 11 8.4 14.7 14.4 29.4 28.9 44.1 43.3 1.2 1.3 2.4 2.7 3.5 4.1 1.2 1.5 0.7 2.6-1 2.7q-0.1 0-0.2 0c-6.6 0.2-13.1 0.2-19.2-3-4.8-2.5-9.1-5.6-13-9.5-1.4-1.5-3.1-2.7-5.2-1.1-3.6 2.7-7 5.5-10.2 8.7-1.3 1.3-1.4 2.7 0 4.1 2.2 2.2 4.3 4.6 6.7 6.7 10.3 9.2 22.3 14.3 36.2 14.4 14.9 0 29.9 0 44.8 0 1.5 0 2.9-0.1 4.4-0.2 0.4-0.1 0.9-0.1 1.3-0.2 0.7-0.1 1.4-0.4 1.7-1.2 0.3-1.2-0.8-1.9-1.5-2.6-3.7-3.7-7.4-7.3-11-11q-38-38.2-76-76.4c-4.7-4.7-10-8.3-16.7-9.1-16.6-2-29.8 4.3-38.9 17.9-4.8 7.2-7.5 15.7-14.6 21.4-1.7 1.3-1.7 3.1-0.6 4.6-1.4 1.7-0.7 3.9 1.3 5.4 1.5 1.2 3.3 2.3 5.1 3.2 2 0.9 2.9 2.4 3.4 4.5 1.1 5.1 2.3 10.1 3.7 15.1 5.5 19.3 16.6 34.6 32.7 46.2q-1.8-0.5-3.9-0.5c-20.3 0.1-40.6 0-60.9 0-1.4 0-2.4 0-3.1 0-0.5-0.1-0.9 0.3-0.9 0.7v19.2c0 0.6 0.5 1 1.1 1 10.3 0 20.7 0 31.1 0 2.2 0.1 2.6 1.3 1.1 2.9q-0.5 0.6-1.1 1.2-1.6 1.7-3.4 3.3c-1.7 1.6-2 3.2-0.7 4.8q0.5 0.7 1.3 1.3c3 2.5 5.6 5.3 8.1 8.2 2.2 2.5 3.9 2.5 6 0.2 6.8-6.9 13.7-13.6 20.3-20.4 1.9-1.9 3.9-2.8 6.5-2.7 5.4 0.1 10.8 0 16.2 0h17.9q2.9 1.2 5.9 2.2c3.3 1.1 6.5 1.9 9.9 1.9 15.4-0.1 30.9-0.1 46.3-0.1h15.5c-19 34.6-55.8 58-98 58-31.1 0-59.3-12.7-79.6-33.3-19.9-20.2-32.3-47.9-32.3-78.6 0-61.8 50.1-111.9 111.9-111.9 27.8 0 53.1 10.1 72.7 26.9 24 20.5 39.2 51 39.2 85 0 10.2-1.4 20.2-4 29.6-21.1 0.1-42.3 0-63.4 0-5.1 0-10.2-0.4-15.1-1.8-25.7-7.2-44.9-22.1-55-47.3-3.4-8.3-5.7-16.8-6-25.7zm28.5-0.8c0.1-5.8-4.5-10.4-10.1-10.4-5.7 0.1-10.2 4.7-10.2 10.4q0 1 0.2 2c0.9 4.8 5 8.3 10 8.3 5 0 9.1-3.5 10-8.3q0.1-1 0.1-2z"/>
	<path fill="#1d7fb0" d="m366.7 207.7c0 87.8-71.2 159-159 159-46.7 0-88.8-20.2-117.9-52.3 27.8 23.6 63.9 37.9 103.3 37.9q1.2 0 2.5 0 0.2 0 0.5 0 1 0 1.9 0 3.1-0.1 6.2-0.3 1-0.1 2-0.2 2.8-0.2 5.5-0.5 1-0.2 2.1-0.3 0.7-0.1 1.4-0.2 5-0.7 10-1.7 1.4-0.3 2.8-0.6 0.9-0.2 1.7-0.4 0.9-0.2 1.8-0.4 0.7-0.2 1.4-0.4 0.9-0.2 1.8-0.5 0 0 0.1 0 1.5-0.4 3-0.8 1.6-0.5 3.1-1 0.1 0 0.1 0 1.5-0.5 3.1-1 0 0 0.1 0 1.1-0.4 2.3-0.9 0.7-0.2 1.3-0.4 3.9-1.4 7.6-3 0.7-0.3 1.5-0.7 5.3-2.3 10.4-5 0.8-0.4 1.7-0.9 2.3-1.2 4.5-2.6 1.1-0.6 2.2-1.2 0 0 0-0.1 0.7-0.4 1.3-0.8 1-0.5 1.9-1.2 0.5-0.2 0.9-0.5 2-1.3 3.9-2.7 0.6-0.4 1.2-0.8 3.8-2.7 7.5-5.6 0.9-0.7 1.8-1.5 0.3-0.2 0.6-0.5 0.8-0.7 1.6-1.3 0.5-0.4 0.9-0.8 1.2-1.1 2.4-2.1 1-0.9 1.9-1.7 0.8-0.8 1.6-1.5 1.3-1.3 2.5-2.5 0.7-0.7 1.3-1.4 1.9-1.9 3.7-3.8 0.6-0.7 1.2-1.4 0.2-0.2 0.4-0.4 0.5-0.6 1.1-1.3 1.5-1.7 3-3.5 0.4-0.5 0.8-1 1-1.2 1.9-2.5 0.7-0.9 1.4-1.8 1.8-2.4 3.6-4.9 0.5-0.8 1.1-1.6 1.6-2.4 3.1-4.8 0.7-1.2 1.4-2.3 0.1-0.2 0.2-0.3 0.5-0.9 1.1-1.9 0.1-0.2 0.3-0.5 0.3-0.6 0.6-1.2 1.1-1.9 2.1-3.8 0.5-0.8 0.9-1.6 1-2.1 2.1-4.2 0.2-0.6 0.5-1.2 0.1-0.2 0.2-0.5 0.5-1 0.9-2 0.7-1.4 1.2-2.8 0.3-0.5 0.5-1 0.5-1.2 0.9-2.4 0.5-1.2 1-2.4 0.2-0.7 0.5-1.3 0.3-1 0.7-1.9 0.2-0.7 0.4-1.3 0.4-1.1 0.7-2.3 0.6-1.5 1-3.1 0.5-1.5 1-3.1 0.3-1.1 0.6-2.3 0.1-0.5 0.2-1.1 0.8-2.8 1.4-5.7 0.2-0.9 0.4-1.7 0.2-1.1 0.4-2.2 0.3-1.6 0.6-3.2 0.2-1.3 0.4-2.7 0.1-0.6 0.2-1.2 0.2-1.4 0.4-2.7 0 0 0-0.1 0.2-1.6 0.4-3.2 0 0 0-0.1 0.1-1.6 0.3-3.3 0.3-3.3 0.4-6.7 0-0.1 0-0.2 0.1-1.6 0.1-3.3 0.1-1.7 0.1-3.5 0-1.4-0.1-2.9 0-1.5 0-3-0.2-3.1-0.4-6.3-0.1-0.8-0.1-1.6-0.2-1.9-0.4-3.7-0.2-1.4-0.3-2.8-0.4-3-0.9-5.9-0.2-1.3-0.4-2.5 0-0.1 0-0.1-0.3-1.4-0.6-2.8-0.2-1.2-0.5-2.3 0-0.3-0.1-0.6-0.3-1.4-0.6-2.7 0-0.1-0.1-0.2-0.2-1.2-0.6-2.4 0-0.1 0-0.2-0.3-1.2-0.7-2.5 0-0.1 0-0.1-0.4-1.4-0.8-2.7-0.4-1.4-0.8-2.7-0.4-1.4-0.9-2.7-0.3-0.9-0.6-1.8-0.6-1.7-1.3-3.5-0.8-2.2-1.7-4.4-0.2-0.6-0.5-1.2-0.4-1.1-0.9-2.1-0.5-1.1-1-2.2-1.9-4.1-3.9-8-0.5-1-1.1-2-0.1-0.2-0.2-0.4-0.6-1.1-1.2-2.2-2.1-3.6-4.3-7.1 0 0 0 0-0.7-1.2-1.5-2.3-0.6-1-1.3-1.9-2.5-3.7-5.2-7.2-0.5-0.7-1-1.3-0.5-0.7-1.1-1.4-1.3-1.6-2.7-3.3c32 29.1 52.1 71.1 52.1 117.7z"/>
	<path fill="#c30d23" opacity=0.2 d="m327.4 107.4q2.2 3.5 4.3 7.1-2.1-3.6-4.3-7.1z"/>
	<path fill="#c30d23" opacity=0.2 d="m351.8 206.7q0.3-3.3 0.4-6.7-0.1 3.4-0.4 6.7z"/>
	<path fill-rule="evenodd" fill="#155879" d="m162.8 149v-0.2q-0.1-2 0-4c0.5-13.9 12.2-21.6 24.6-16.3 4.3 1.9 7.7 5.2 11 8.4 14.7 14.4 29.4 28.9 44.1 43.3 1.2 1.3 2.4 2.7 3.5 4.1 1.2 1.5 0.7 2.6-1 2.7q-0.1 0-0.2 0c-6.6 0.2-13.1 0.2-19.2-3-4.8-2.5-9.1-5.6-13-9.5-1.4-1.5-3.1-2.7-5.2-1.1-3.6 2.7-7 5.5-10.2 8.7-1.3 1.3-1.4 2.7 0 4.1 2.2 2.2 4.3 4.6 6.7 6.7 10.3 9.2 22.3 14.3 36.2 14.4 14.9 0 29.9 0 44.8 0 1.5 0 2.9-0.1 4.4-0.2 0.4-0.1 0.9-0.1 1.3-0.2 0.7-0.1 1.4-0.4 1.7-1.2 0.3-1.2-0.8-1.9-1.5-2.6-3.7-3.7-7.4-7.3-11-11q-38-38.2-76-76.4c-4.7-4.7-10-8.3-16.7-9.1-16.6-2-29.8 4.3-38.9 17.9-4.8 7.2-7.5 15.7-14.6 21.4-1.7 1.3-1.7 3.1-0.6 4.6-1.4 1.7-0.7 3.9 1.3 5.4 1.5 1.2 3.3 2.3 5.1 3.2 2 0.9 2.9 2.4 3.4 4.5 1.1 5.1 2.3 10.1 3.7 15.1 5.5 19.3 16.6 34.6 32.7 46.2q-1.8-0.5-3.9-0.5c-20.3 0.1-40.6 0-60.9 0-1.4 0-2.4 0-3.1 0-0.5-0.1-0.9 0.3-0.9 0.7v19.2c0 0.6 0.5 1 1.1 1 10.3 0 20.7 0 31.1 0 2.2 0.1 2.6 1.3 1.1 2.9q-0.5 0.6-1.1 1.2-1.6 1.7-3.4 3.3c-1.7 1.6-2 3.2-0.7 4.8q0.5 0.7 1.3 1.3c3 2.5 5.6 5.3 8.1 8.2 2.2 2.5 3.9 2.5 6 0.2 6.8-6.9 13.7-13.6 20.3-20.4 1.9-1.9 3.9-2.8 6.5-2.7 5.4 0.1 10.8 0 16.2 0h17.9q2.9 1.2 5.9 2.2c3.3 1.1 6.5 1.9 9.9 1.9 15.4-0.1 30.9-0.1 46.3-0.1h15.5c-19 34.6-55.8 58-98 58-31.1 0-59.3-12.7-79.6-33.3-19.9-20.2-32.3-47.9-32.3-78.6 0-61.8 50.1-111.9 111.9-111.9 27.8 0 53.1 10.1 72.7 26.9 24 20.5 39.2 51 39.2 85 0 10.2-1.4 20.2-4 29.6-21.1 0.1-42.3 0-63.4 0-5.1 0-10.2-0.4-15.1-1.8-25.7-7.2-44.9-22.1-55-47.3-3.4-8.3-5.7-16.8-6-25.7zm28.5-0.8c0.1-5.8-4.5-10.4-10.1-10.4-5.7 0.1-10.2 4.7-10.2 10.4q0 1 0.2 2c0.9 4.8 5 8.3 10 8.3 5 0 9.1-3.5 10-8.3q0.1-1 0.1-2z"/>
	<path fill="#0d425c" d="m267.1 109.2c-19.6-16.8-44.9-26.9-72.7-26.9-61.8 0-111.9 50.1-111.9 111.9 0 30.7 12.4 58.4 32.3 78.6-23.9-20.5-39.1-50.9-39.1-84.9 0-61.8 50.1-111.9 111.9-111.9 31.1 0 59.2 12.7 79.5 33.2z"/>
	<path fill="#ffffff" d="m302.3 223.8q-0.5 2-1.2 4-2.6 8.5-6.6 16.3h-17.6c-15.4 0-30.9 0-46.3 0-3.4 0.1-6.6-0.7-9.9-1.8q-21.4-7.5-40-20.4c-16.9-11.7-28.5-27.4-34.2-47.2-1.4-5-2.6-10-3.7-15.1-0.5-2.1-1.4-3.6-3.4-4.5-1.8-0.9-3.6-2-5.1-3.2q-0.9-0.6-1.3-1.4c-1.1-1.5-1.1-3.3 0.6-4.6 7.1-5.7 9.8-14.2 14.6-21.4 9.1-13.6 22.3-19.9 38.9-17.9 6.7 0.8 12 4.4 16.7 9.1q38 38.2 76 76.4c3.6 3.7 7.3 7.3 11 11 0.7 0.7 1.8 1.4 1.5 2.6-0.3 0.8-1 1.1-1.7 1.2-0.4 0.1-0.9 0.1-1.3 0.2-1.5 0.1-2.9 0.2-4.4 0.2-14.9 0-29.9 0-44.8 0-13.9-0.1-25.9-5.2-36.2-14.4-2.4-2.1-4.5-4.5-6.7-6.7-1.4-1.4-1.3-2.8 0-4.1 3.2-3.2 6.6-6 10.2-8.7 2.1-1.6 3.8-0.4 5.2 1.1 3.9 3.9 8.2 7 13 9.5 6.1 3.2 12.6 3.2 19.2 3q0.1 0 0.2 0c1.7-0.1 2.2-1.2 1-2.7-1.1-1.4-2.3-2.8-3.5-4.1-14.7-14.4-29.4-28.9-44.1-43.3-3.3-3.2-6.7-6.5-11-8.4-12.4-5.3-24.1 2.4-24.6 16.3q-0.1 2 0 4v0.2c0.3 8.9 2.6 17.4 6 25.7 10.1 25.2 29.3 40.1 55 47.3 4.9 1.4 10 1.8 15.1 1.8 21.1 0 42.3 0.1 63.4 0z"/>
	<path fill="#ffffff" d="m191.3 148.2q0 1-0.1 2c-0.9 4.8-5 8.3-10 8.3-5 0-9.1-3.5-10-8.3q-0.2-1-0.2-2c0-5.7 4.5-10.3 10.2-10.4 5.6 0 10.2 4.6 10.1 10.4z"/>
	<path fill="#ffffff" d="m214.8 244.1h-17.9c-5.4 0-10.8 0.1-16.2 0-2.6-0.1-4.6 0.8-6.5 2.7-6.6 6.8-13.5 13.5-20.3 20.4-2.1 2.3-3.8 2.3-6-0.2-2.5-2.9-5.1-5.7-8.1-8.2q-0.8-0.6-1.3-1.3c-1.3-1.6-1-3.2 0.7-4.8q1.8-1.6 3.4-3.3 0.6-0.6 1.1-1.2c1.5-1.6 1.1-2.8-1.1-2.9-10.4 0-20.8 0-31.1 0-0.6 0-1.1-0.4-1.1-1v-19.2c0-0.4 0.4-0.8 0.9-0.7 0.7 0 1.7 0 3.1 0 20.3 0 40.6 0.1 60.9 0q2.1 0 3.9 0.5 0 0 0 0 0.8 0.5 1.5 1 16 11.1 34.1 18.2z"/>
	<path fill="#0d425c" d="m143.7 248.2q-0.5 0.6-1.1 1.2c-10.4-0.1-20.8-0.1-31.1-0.1-0.6 0-1.1-0.4-1.1-1v-4c0 0.6 0.5 1 1.1 1 10.3 0 20.7 0 31.1 0 2.2 0.1 2.6 1.3 1.1 2.9z"/>
	<path fill="#0d425c" d="m217.5 248.1h-20.6c-5.4 0-10.8 0.1-16.2 0-2.6 0-4.6 0.8-6.4 2.7-6.7 6.9-13.6 13.6-20.4 20.5-2.1 2.2-3.8 2.2-6-0.3-2.5-2.9-5.1-5.7-8.1-8.2-2.3-1.9-2.7-3.5-1.3-5.3q0.5 0.7 1.3 1.3c3 2.5 5.6 5.3 8.1 8.2 2.2 2.5 3.9 2.5 6 0.2 6.8-6.9 13.7-13.6 20.4-20.4 1.8-1.9 3.8-2.8 6.4-2.7 5.4 0.1 10.8 0 16.2 0h11.5q3.1 1.3 6.2 2.5c1 0.4 2.1 0.4 2.9 1.5z"/>
	<path fill="#0d425c" d="m245 187q-1.2-1.4-2.5-2.7c-14.7-14.5-29.4-29-44.1-43.3-3.3-3.3-6.7-6.6-11-8.5-12.4-5.3-24.1 2.4-24.6 16.3q-0.1-2 0-4c0.5-13.9 12.2-21.6 24.6-16.3 4.3 1.9 7.7 5.2 11 8.4 14.7 14.4 29.4 28.9 44.1 43.3 1.3 1.3 2.4 2.7 3.5 4.1 1.3 1.5 0.7 2.6-1 2.7z"/>
	<path fill="#0d425c" d="m292.3 209.7c-0.4 1.3-1.9 1.3-3 1.4-1.5 0.2-2.9 0.2-4.4 0.2-14.9 0-29.9 0-44.8 0-13.9-0.1-25.9-5.1-36.2-14.4-2.4-2.1-4.5-4.5-6.7-6.7-1.4-1.4-1.3-2.7 0-4 2.2 2.2 4.3 4.6 6.7 6.7 10.3 9.2 22.3 14.3 36.2 14.4 14.9 0 29.9 0 44.8 0 1.5 0 2.9-0.1 4.4-0.2 0.4-0.1 0.9-0.1 1.3-0.2q0.1 0.1 0.2 0.2c0.7 0.7 1.8 1.4 1.5 2.6z"/>
	<path fill="#0d425c" d="m294.5 244.1q-1 2.1-2.1 4h-15.5c-15.4 0-30.9 0-46.3 0.1-3.4 0-6.6-0.8-9.9-1.9q-3-1-5.9-2.2-18.1-7.1-34.1-18.2-0.7-0.5-1.5-1 0 0 0 0c-16.1-11.6-27.2-26.9-32.7-46.2-1.4-5-2.6-10-3.7-15.1-0.5-2.1-1.4-3.6-3.4-4.5-1.8-0.9-3.6-2-5.1-3.2-2-1.5-2.7-3.7-1.3-5.4q0.4 0.8 1.3 1.4c1.5 1.2 3.3 2.3 5.1 3.2 2 0.9 2.9 2.4 3.4 4.5 1.1 5.1 2.3 10.1 3.7 15.1 5.7 19.8 17.3 35.5 34.2 47.2q18.6 12.9 40 20.4c3.3 1.1 6.5 1.9 9.9 1.8 15.4 0 30.9 0 46.3 0z"/>
	<path fill="#0d425c" d="m191.3 152.2c0 5.8-4.4 10.3-10.1 10.3-5.7 0-10.2-4.5-10.2-10.3q0-1 0.2-2c0.9 4.8 5 8.3 10 8.3 5 0 9.1-3.5 10-8.3q0.1 1 0.1 2z"/>
</svg>