<svg width="11" height="10" viewBox="0 0 11 10" fill="none" xmlns="http://www.w3.org/2000/svg">
<path d="M5.5 0.9375C3.25645 0.9375 1.4375 2.75645 1.4375 5C1.4375 7.24355 3.25645 9.0625 5.5 9.0625C7.74355 9.0625 9.5625 7.24355 9.5625 5C9.5625 2.75645 7.74355 0.9375 5.5 0.9375ZM7.375 5.625H5.5C5.41712 5.625 5.33763 5.59208 5.27903 5.53347C5.22042 5.47487 5.1875 5.39538 5.1875 5.3125V2.5C5.1875 2.41712 5.22042 2.33763 5.27903 2.27903C5.33763 2.22042 5.41712 2.1875 5.5 2.1875C5.58288 2.1875 5.66237 2.22042 5.72097 2.27903C5.77958 2.33763 5.8125 2.41712 5.8125 2.5V5H7.375C7.45788 5 7.53737 5.03292 7.59597 5.09153C7.65458 5.15013 7.6875 5.22962 7.6875 5.3125C7.6875 5.39538 7.65458 5.47487 7.59597 5.53347C7.53737 5.59208 7.45788 5.625 7.375 5.625Z" fill="#404040"/>
</svg>
