<svg width="40" height="37" viewBox="0 0 40 37" fill="none" xmlns="http://www.w3.org/2000/svg">
<path d="M38.6949 3.53129L1.40025 3.56747C0.832261 4.51448 0.504883 5.62271 0.504883 6.80752V13.0386H39.5952V6.76923C39.5952 5.58442 39.266 4.47619 38.6949 3.53129Z" fill="#B95529"/>
<path d="M33.3258 0.500046H6.81215C4.84578 0.500046 3.08981 1.39998 1.93311 2.8103L38.1578 2.77518C37.0078 1.38558 35.2704 0.500046 33.3258 0.500046Z" fill="#B95529"/>
<path d="M38.1578 2.77499L1.93312 2.81012C1.73747 3.04863 1.55973 3.30189 1.3999 3.56744L38.6945 3.53126C38.534 3.26536 38.3549 3.0128 38.1578 2.77499Z" fill="#9B432B"/>
<path d="M39.5952 36.5001H0.504883V13.0386H39.5952V36.5001Z" fill="#9B432B"/>
<path d="M39.5952 10.252H0.504883V13.0385H39.5952V10.252Z" fill="#FEC916"/>
<path d="M39.5952 13.0386H0.504883V15.8251H39.5952V13.0386Z" fill="#FEB81F"/>
<path d="M39.5952 33.7133H0.504883V36.4999H39.5952V33.7133Z" fill="#FEB81F"/>
<path d="M0.500703 31.726L0.5 30.9694L39.5899 30.9311L39.591 31.6881L0.500703 31.726Z" fill="#883222"/>
<path d="M0.500703 27.1942L0.5 26.4376L39.5899 26.3993L39.591 27.1559L0.500703 27.1942Z" fill="#883222"/>
<path d="M0.500703 18.1306L0.5 17.374L39.5899 17.3357L39.591 18.0923L0.500703 18.1306Z" fill="#883222"/>
<path d="M0.505097 22.6622L0.504395 21.9056L39.5947 21.8673L39.5957 22.6242L0.505097 22.6622Z" fill="#883222"/>
<path d="M3.29145 13.0386H0.504883V36.4492H3.29145V13.0386Z" fill="#FEB81F"/>
<path d="M39.5952 13.0386H36.8086V36.4492H39.5952V13.0386Z" fill="#FEB81F"/>
<path d="M0.504395 31.0789C0.504395 31.0789 5.92544 31.1997 5.92544 36.4999H0.504395V31.0789Z" fill="#FDCF26"/>
<path d="M0.504395 7.61753C0.504395 7.61753 5.92544 7.73837 5.92544 13.0386H0.504395V7.61753Z" fill="#FDCF26"/>
<path d="M5.92592 13.0383C5.92592 13.0383 5.80509 18.4594 0.504883 18.4594V13.0383H5.92592Z" fill="#FDCF26"/>
<path d="M39.5949 18.4592C39.5949 18.4592 34.1738 18.3383 34.1738 13.0381H39.5949V18.4592Z" fill="#FDCF26"/>
<path d="M34.1743 36.4999C34.1743 36.4999 34.2952 31.0789 39.5954 31.0789V36.4999H34.1743Z" fill="#FDCF26"/>
<path d="M34.1743 13.0386C34.1743 13.0386 34.2952 7.61753 39.5954 7.61753V13.0386H34.1743Z" fill="#FDCF26"/>
<path d="M20.2914 18.6339H19.8081C18.3901 18.6339 17.2407 17.4845 17.2407 16.0665V13.0158H22.8588V16.0665C22.8588 17.4845 21.7095 18.6339 20.2914 18.6339Z" fill="#FEC916"/>
<path d="M20.0889 16.1915C19.2388 16.1915 18.5472 16.8831 18.5472 17.7332C18.5472 18.5832 19.2388 19.2749 20.0889 19.2749C20.9389 19.2749 21.6306 18.5832 21.6306 17.7332C21.6306 16.8831 20.9389 16.1915 20.0889 16.1915ZM20.0889 20.5359C18.5437 20.5359 17.2861 19.2787 17.2861 17.7332C17.2861 16.1876 18.5437 14.9304 20.0889 14.9304C21.6344 14.9304 22.8916 16.1876 22.8916 17.7332C22.8916 19.2787 21.6344 20.5359 20.0889 20.5359Z" fill="#94B2B9"/>
<path d="M20.1367 17.2285H20.0411C19.7605 17.2285 19.5332 17.0012 19.5332 16.7206V14.4026C19.5332 14.1223 19.7605 13.8947 20.0411 13.8947H20.1367C20.417 13.8947 20.6446 14.1223 20.6446 14.4026V16.7206C20.6446 17.0012 20.417 17.2285 20.1367 17.2285Z" fill="#F29101"/>
<path d="M22.2906 23.8831H17.8091C16.9707 23.8831 16.2847 23.197 16.2847 22.3586V19.1178C16.2847 18.2794 16.9707 17.5933 17.8091 17.5933H22.2906C23.129 17.5933 23.815 18.2794 23.815 19.1178V22.3586C23.815 23.197 23.129 23.8831 22.2906 23.8831Z" fill="#859DA7"/>
<path d="M22.6223 20.5358C22.6223 21.9134 21.5053 23.0305 20.1276 23.0305C18.7503 23.0305 17.6333 21.9134 17.6333 20.5358C17.6333 19.1581 18.7503 18.0415 20.1276 18.0415C21.5053 18.0415 22.6223 19.1581 22.6223 20.5358Z" fill="#94B2B9"/>
<path d="M20.4327 20.6017C20.7657 20.4658 21.0007 20.1398 21.0007 19.758C21.0007 19.2546 20.5925 18.8464 20.0888 18.8464C19.5854 18.8464 19.1772 19.2546 19.1772 19.758C19.1772 20.1398 19.4122 20.4658 19.7452 20.6017L19.7449 20.602L19.1772 22.2256H20.0888H21.0007L20.433 20.602L20.4327 20.6017Z" fill="#476D76"/>
<path d="M0.505097 7.18561L0.504395 6.42899L39.5947 6.3907L39.5957 7.14732L0.505097 7.18561Z" fill="#9B432B"/>
<path d="M1.96892 13.9717C1.96892 14.2256 1.76308 14.4315 1.50912 14.4315C1.25516 14.4315 1.04932 14.2256 1.04932 13.9717C1.04932 13.7177 1.25516 13.5119 1.50912 13.5119C1.76308 13.5119 1.96892 13.7177 1.96892 13.9717Z" fill="#F8B133"/>
<path d="M5.24627 13.9717C5.24627 14.2256 5.04043 14.4315 4.78646 14.4315C4.5325 14.4315 4.32666 14.2256 4.32666 13.9717C4.32666 13.7177 4.5325 13.5119 4.78646 13.5119C5.04043 13.5119 5.24627 13.7177 5.24627 13.9717Z" fill="#F8B133"/>
<path d="M1.95232 17.266C1.95232 17.5199 1.74648 17.7258 1.49252 17.7258C1.23855 17.7258 1.03271 17.5199 1.03271 17.266C1.03271 17.012 1.23855 16.8062 1.49252 16.8062C1.74648 16.8062 1.95232 17.012 1.95232 17.266Z" fill="#F8B133"/>
<path d="M1.49252 35.2124C1.74648 35.2124 1.95232 35.4182 1.95232 35.6722C1.95232 35.9261 1.74648 36.132 1.49252 36.132C1.23855 36.132 1.03271 35.9261 1.03271 35.6722C1.03271 35.4182 1.23855 35.2124 1.49252 35.2124Z" fill="#F8B133"/>
<path d="M1.49252 31.9347C1.74648 31.9347 1.95232 32.1405 1.95232 32.3945C1.95232 32.6485 1.74648 32.8543 1.49252 32.8543C1.23855 32.8543 1.03271 32.6485 1.03271 32.3945C1.03271 32.1405 1.23855 31.9347 1.49252 31.9347Z" fill="#F8B133"/>
<path d="M4.78646 35.229C5.04043 35.229 5.24627 35.4348 5.24627 35.6888C5.24627 35.9427 5.04043 36.1486 4.78646 36.1486C4.5325 36.1486 4.32666 35.9427 4.32666 35.6888C4.32666 35.4348 4.5325 35.229 4.78646 35.229Z" fill="#F8B133"/>
<path d="M38.1309 35.6888C38.1309 35.4348 38.3367 35.229 38.5907 35.229C38.8446 35.229 39.0505 35.4348 39.0505 35.6888C39.0505 35.9427 38.8446 36.1486 38.5907 36.1486C38.3367 36.1486 38.1309 35.9427 38.1309 35.6888Z" fill="#F8B133"/>
<path d="M34.8535 35.6888C34.8535 35.4348 35.0594 35.229 35.3133 35.229C35.5673 35.229 35.7731 35.4348 35.7731 35.6888C35.7731 35.9427 35.5673 36.1486 35.3133 36.1486C35.0594 36.1486 34.8535 35.9427 34.8535 35.6888Z" fill="#F8B133"/>
<path d="M38.1475 32.3945C38.1475 32.1405 38.3533 31.9347 38.6073 31.9347C38.8612 31.9347 39.0671 32.1405 39.0671 32.3945C39.0671 32.6485 38.8612 32.8543 38.6073 32.8543C38.3533 32.8543 38.1475 32.6485 38.1475 32.3945Z" fill="#F8B133"/>
<path d="M1.49252 11.7673C1.74648 11.7673 1.95232 11.9732 1.95232 12.2271C1.95232 12.4811 1.74648 12.687 1.49252 12.687C1.23855 12.687 1.03271 12.4811 1.03271 12.2271C1.03271 11.9732 1.23855 11.7673 1.49252 11.7673Z" fill="#F8B133"/>
<path d="M1.49252 8.48994C1.74648 8.48994 1.95232 8.69578 1.95232 8.94974C1.95232 9.20371 1.74648 9.40955 1.49252 9.40955C1.23855 9.40955 1.03271 9.20371 1.03271 8.94974C1.03271 8.69578 1.23855 8.48994 1.49252 8.48994Z" fill="#F8B133"/>
<path d="M4.78646 11.784C5.04043 11.784 5.24627 11.9898 5.24627 12.2438C5.24627 12.4978 5.04043 12.7036 4.78646 12.7036C4.5325 12.7036 4.32666 12.4978 4.32666 12.2438C4.32666 11.9898 4.5325 11.784 4.78646 11.784Z" fill="#F8B133"/>
<path d="M38.1309 12.2438C38.1309 11.9898 38.3367 11.784 38.5907 11.784C38.8446 11.784 39.0505 11.9898 39.0505 12.2438C39.0505 12.4978 38.8446 12.7036 38.5907 12.7036C38.3367 12.7036 38.1309 12.4978 38.1309 12.2438Z" fill="#F8B133"/>
<path d="M34.8535 12.2438C34.8535 11.9898 35.0594 11.784 35.3133 11.784C35.5673 11.784 35.7731 11.9898 35.7731 12.2438C35.7731 12.4978 35.5673 12.7036 35.3133 12.7036C35.0594 12.7036 34.8535 12.4978 34.8535 12.2438Z" fill="#F8B133"/>
<path d="M38.1475 8.94974C38.1475 8.69578 38.3533 8.48994 38.6073 8.48994C38.8612 8.48994 39.0671 8.69578 39.0671 8.94974C39.0671 9.20371 38.8612 9.40955 38.6073 9.40955C38.3533 9.40955 38.1475 9.20371 38.1475 8.94974Z" fill="#F8B133"/>
<path d="M38.6073 14.4483C38.3533 14.4483 38.1475 14.2425 38.1475 13.9885C38.1475 13.7345 38.3533 13.5287 38.6073 13.5287C38.8612 13.5287 39.0671 13.7345 39.0671 13.9885C39.0671 14.2425 38.8612 14.4483 38.6073 14.4483Z" fill="#F8B133"/>
<path d="M38.6073 17.726C38.3533 17.726 38.1475 17.5201 38.1475 17.2661C38.1475 17.0122 38.3533 16.8063 38.6073 16.8063C38.8612 16.8063 39.0671 17.0122 39.0671 17.2661C39.0671 17.5201 38.8612 17.726 38.6073 17.726Z" fill="#F8B133"/>
<path d="M35.3133 14.4316C35.0594 14.4316 34.8535 14.2258 34.8535 13.9718C34.8535 13.7179 35.0594 13.512 35.3133 13.512C35.5673 13.512 35.7731 13.7179 35.7731 13.9718C35.7731 14.2258 35.5673 14.4316 35.3133 14.4316Z" fill="#F8B133"/>
<path d="M7.35092 13.9718C7.60488 13.9718 7.81072 14.1776 7.81072 14.4316C7.81072 14.6855 7.60488 14.8914 7.35092 14.8914C7.09695 14.8914 6.89111 14.6855 6.89111 14.4316C6.89111 14.1776 7.09695 13.9718 7.35092 13.9718Z" fill="#F29101"/>
<path d="M11.5882 13.9718C11.8422 13.9718 12.048 14.1776 12.048 14.4316C12.048 14.6855 11.8422 14.8914 11.5882 14.8914C11.3343 14.8914 11.1284 14.6855 11.1284 14.4316C11.1284 14.1776 11.3343 13.9718 11.5882 13.9718Z" fill="#F29101"/>
<path d="M15.8245 13.9718C16.0785 13.9718 16.2844 14.1776 16.2844 14.4316C16.2844 14.6855 16.0785 14.8914 15.8245 14.8914C15.5706 14.8914 15.3647 14.6855 15.3647 14.4316C15.3647 14.1776 15.5706 13.9718 15.8245 13.9718Z" fill="#F29101"/>
<path d="M24.2747 13.9888C24.5287 13.9888 24.7345 14.1947 24.7345 14.4486C24.7345 14.7026 24.5287 14.9084 24.2747 14.9084C24.0208 14.9084 23.8149 14.7026 23.8149 14.4486C23.8149 14.1947 24.0208 13.9888 24.2747 13.9888Z" fill="#F29101"/>
<path d="M28.512 13.9888C28.766 13.9888 28.9719 14.1947 28.9719 14.4486C28.9719 14.7026 28.766 14.9084 28.512 14.9084C28.2581 14.9084 28.0522 14.7026 28.0522 14.4486C28.0522 14.1947 28.2581 13.9888 28.512 13.9888Z" fill="#F29101"/>
<path d="M32.7489 13.9888C33.0028 13.9888 33.2087 14.1947 33.2087 14.4486C33.2087 14.7026 33.0028 14.9084 32.7489 14.9084C32.4949 14.9084 32.2891 14.7026 32.2891 14.4486C32.2891 14.1947 32.4949 13.9888 32.7489 13.9888Z" fill="#F29101"/>
<path d="M2.35808 20.5067C2.35808 20.7607 2.15224 20.9666 1.89828 20.9666C1.64432 20.9666 1.43848 20.7607 1.43848 20.5067C1.43848 20.2528 1.64432 20.0469 1.89828 20.0469C2.15224 20.0469 2.35808 20.2528 2.35808 20.5067Z" fill="#F29101"/>
<path d="M2.35808 24.7437C2.35808 24.9977 2.15224 25.2036 1.89828 25.2036C1.64432 25.2036 1.43848 24.9977 1.43848 24.7437C1.43848 24.4898 1.64432 24.2839 1.89828 24.2839C2.15224 24.2839 2.35808 24.4898 2.35808 24.7437Z" fill="#F29101"/>
<path d="M2.35808 28.9806C2.35808 29.2345 2.15224 29.4404 1.89828 29.4404C1.64432 29.4404 1.43848 29.2345 1.43848 28.9806C1.43848 28.7266 1.64432 28.5208 1.89828 28.5208C2.15224 28.5208 2.35808 28.7266 2.35808 28.9806Z" fill="#F29101"/>
<path d="M38.6613 20.5067C38.6613 20.7607 38.4555 20.9666 38.2015 20.9666C37.9475 20.9666 37.7417 20.7607 37.7417 20.5067C37.7417 20.2528 37.9475 20.0469 38.2015 20.0469C38.4555 20.0469 38.6613 20.2528 38.6613 20.5067Z" fill="#F29101"/>
<path d="M38.6613 24.7437C38.6613 24.9977 38.4555 25.2036 38.2015 25.2036C37.9475 25.2036 37.7417 24.9977 37.7417 24.7437C37.7417 24.4898 37.9475 24.2839 38.2015 24.2839C38.4555 24.2839 38.6613 24.4898 38.6613 24.7437Z" fill="#F29101"/>
<path d="M38.6613 28.9806C38.6613 29.2345 38.4555 29.4404 38.2015 29.4404C37.9475 29.4404 37.7417 29.2345 37.7417 28.9806C37.7417 28.7266 37.9475 28.5208 38.2015 28.5208C38.4555 28.5208 38.6613 28.7266 38.6613 28.9806Z" fill="#F29101"/>
<path d="M7.35092 34.7524C7.09695 34.7524 6.89111 34.9582 6.89111 35.2122C6.89111 35.4662 7.09695 35.672 7.35092 35.672C7.60488 35.672 7.81072 35.4662 7.81072 35.2122C7.81072 34.9582 7.60488 34.7524 7.35092 34.7524Z" fill="#F29101"/>
<path d="M11.5882 34.7524C11.3343 34.7524 11.1284 34.9582 11.1284 35.2122C11.1284 35.4662 11.3343 35.672 11.5882 35.672C11.8422 35.672 12.048 35.4662 12.048 35.2122C12.048 34.9582 11.8422 34.7524 11.5882 34.7524Z" fill="#F29101"/>
<path d="M15.8521 34.7524C15.8475 34.7524 15.8433 34.7534 15.8384 34.7538C15.8338 34.7534 15.8296 34.7524 15.8247 34.7524C15.5711 34.7524 15.3652 34.9582 15.3652 35.2122C15.3652 35.4662 15.5711 35.672 15.8247 35.672C15.8296 35.672 15.8338 35.6709 15.8384 35.6706C15.8433 35.6709 15.8475 35.672 15.8521 35.672C16.106 35.672 16.3119 35.4662 16.3119 35.2122C16.3119 34.9582 16.106 34.7524 15.8521 34.7524Z" fill="#F29101"/>
<path d="M20.0887 34.7524C19.8347 34.7524 19.6289 34.9582 19.6289 35.2122C19.6289 35.4662 19.8347 35.672 20.0887 35.672C20.3427 35.672 20.5485 35.4662 20.5485 35.2122C20.5485 34.9582 20.3427 34.7524 20.0887 34.7524Z" fill="#F29101"/>
<path d="M24.3257 34.7524C24.3172 34.7524 24.3088 34.7545 24.3004 34.7548C24.2916 34.7545 24.2835 34.7524 24.2747 34.7524C24.0208 34.7524 23.8149 34.9582 23.8149 35.2122C23.8149 35.4662 24.0208 35.672 24.2747 35.672C24.2835 35.672 24.2916 35.6699 24.3004 35.6695C24.3088 35.6699 24.3172 35.672 24.3257 35.672C24.5796 35.672 24.7855 35.4662 24.7855 35.2122C24.7855 34.9582 24.5796 34.7524 24.3257 34.7524Z" fill="#F29101"/>
<path d="M28.512 34.7524C28.2581 34.7524 28.0522 34.9582 28.0522 35.2122C28.0522 35.4662 28.2581 35.672 28.512 35.672C28.766 35.672 28.9719 35.4662 28.9719 35.2122C28.9719 34.9582 28.766 34.7524 28.512 34.7524Z" fill="#F29101"/>
<path d="M32.7489 34.7524C32.4949 34.7524 32.2891 34.9582 32.2891 35.2122C32.2891 35.4662 32.4949 35.672 32.7489 35.672C33.0028 35.672 33.2087 35.4662 33.2087 35.2122C33.2087 34.9582 33.0028 34.7524 32.7489 34.7524Z" fill="#F29101"/>
<path d="M7.38998 11.1851C7.13602 11.1851 6.93018 11.391 6.93018 11.6449C6.93018 11.8989 7.13602 12.1047 7.38998 12.1047C7.64394 12.1047 7.84978 11.8989 7.84978 11.6449C7.84978 11.391 7.64394 11.1851 7.38998 11.1851Z" fill="#F29101"/>
<path d="M11.6268 11.1851C11.3728 11.1851 11.167 11.391 11.167 11.6449C11.167 11.8989 11.3728 12.1047 11.6268 12.1047C11.8808 12.1047 12.0866 11.8989 12.0866 11.6449C12.0866 11.391 11.8808 11.1851 11.6268 11.1851Z" fill="#F29101"/>
<path d="M15.891 11.1851C15.8861 11.1851 15.8819 11.1865 15.8773 11.1865C15.8727 11.1865 15.8685 11.1851 15.8636 11.1851C15.6096 11.1851 15.4038 11.391 15.4038 11.6449C15.4038 11.8989 15.6096 12.1047 15.8636 12.1047C15.8685 12.1047 15.8727 12.1037 15.8773 12.1033C15.8819 12.1037 15.8861 12.1047 15.891 12.1047C16.145 12.1047 16.3508 11.8989 16.3508 11.6449C16.3508 11.391 16.145 11.1851 15.891 11.1851Z" fill="#F29101"/>
<path d="M20.1278 11.1851C19.8738 11.1851 19.668 11.391 19.668 11.6449C19.668 11.8989 19.8738 12.1047 20.1278 12.1047C20.3817 12.1047 20.5876 11.8989 20.5876 11.6449C20.5876 11.391 20.3817 11.1851 20.1278 11.1851Z" fill="#F29101"/>
<path d="M24.3647 11.1851C24.356 11.1851 24.3479 11.1872 24.3394 11.1876C24.3307 11.1872 24.3226 11.1851 24.3138 11.1851C24.0598 11.1851 23.854 11.391 23.854 11.6449C23.854 11.8989 24.0598 12.1047 24.3138 12.1047C24.3226 12.1047 24.3307 12.1026 24.3394 12.1023C24.3479 12.1026 24.356 12.1047 24.3647 12.1047C24.6187 12.1047 24.8245 11.8989 24.8245 11.6449C24.8245 11.391 24.6187 11.1851 24.3647 11.1851Z" fill="#F29101"/>
<path d="M28.5506 11.1851C28.2967 11.1851 28.0908 11.391 28.0908 11.6449C28.0908 11.8989 28.2967 12.1047 28.5506 12.1047C28.8046 12.1047 29.0104 11.8989 29.0104 11.6449C29.0104 11.391 28.8046 11.1851 28.5506 11.1851Z" fill="#F29101"/>
<path d="M32.7879 11.1851C32.534 11.1851 32.3281 11.391 32.3281 11.6449C32.3281 11.8989 32.534 12.1047 32.7879 12.1047C33.0419 12.1047 33.2477 11.8989 33.2477 11.6449C33.2477 11.391 33.0419 11.1851 32.7879 11.1851Z" fill="#F29101"/>
<path d="M39.5952 13.1647H0.504883V12.9125H39.5952V13.1647Z" fill="#F29101"/>
</svg>
