<svg width="25" height="24" viewBox="0 0 25 24" fill="none" xmlns="http://www.w3.org/2000/svg">
<path d="M5.25 21C4.7 21 4.22917 20.8042 3.8375 20.4125C3.44583 20.0208 3.25 19.55 3.25 19V5C3.25 4.45 3.44583 3.97917 3.8375 3.5875C4.22917 3.19583 4.7 3 5.25 3H19.25C19.8 3 20.2708 3.19583 20.6625 3.5875C21.0542 3.97917 21.25 4.45 21.25 5H13.25C12.0667 5 11.1042 5.37083 10.3625 6.1125C9.62083 6.85417 9.25 7.81667 9.25 9V15C9.25 16.1833 9.62083 17.1458 10.3625 17.8875C11.1042 18.6292 12.0667 19 13.25 19H21.25C21.25 19.55 21.0542 20.0208 20.6625 20.4125C20.2708 20.8042 19.8 21 19.25 21H5.25ZM13.25 17C12.7 17 12.2292 16.8042 11.8375 16.4125C11.4458 16.0208 11.25 15.55 11.25 15V9C11.25 8.45 11.4458 7.97917 11.8375 7.5875C12.2292 7.19583 12.7 7 13.25 7H20.25C20.8 7 21.2708 7.19583 21.6625 7.5875C22.0542 7.97917 22.25 8.45 22.25 9V15C22.25 15.55 22.0542 16.0208 21.6625 16.4125C21.2708 16.8042 20.8 17 20.25 17H13.25ZM16.25 13.5C16.6833 13.5 17.0417 13.3583 17.325 13.075C17.6083 12.7917 17.75 12.4333 17.75 12C17.75 11.5667 17.6083 11.2083 17.325 10.925C17.0417 10.6417 16.6833 10.5 16.25 10.5C15.8167 10.5 15.4583 10.6417 15.175 10.925C14.8917 11.2083 14.75 11.5667 14.75 12C14.75 12.4333 14.8917 12.7917 15.175 13.075C15.4583 13.3583 15.8167 13.5 16.25 13.5Z" fill="currentColor"/>
</svg>
